<svg fill="#9a9a9a" stroke="#9a9a9a" id="Layer_1" style="enable-background:new 0 0 48 48;" version="1.1" viewBox="0 0 48 48" xml:space="preserve" xmlns="http://www.w3.org/2000/svg" xmlns:xlink="http://www.w3.org/1999/xlink"><g><path d="M41.7,23.3l-8.5-8.5c-0.4-0.4-1-0.4-1.4,0c-0.4,0.4-0.4,1,0,1.4l6.8,6.8H19.1c-0.6,0-1,0.4-1,1s0.4,1,1,1h19.4l-6.8,6.8   c-0.4,0.4-0.4,1,0,1.4c0.2,0.2,0.5,0.3,0.7,0.3s0.5-0.1,0.7-0.3l8.5-8.5c0.2-0.2,0.3-0.4,0.3-0.7S41.9,23.5,41.7,23.3z"/><path d="M26.1,34.3c-0.5,0-0.9,0.4-0.9,0.9V39c0,0.6-0.5,1.1-1.1,1.1H9c-0.6,0-1.1-0.5-1.1-1.1V9c0-0.6,0.5-1.1,1.1-1.1h15.2   c0.6,0,1.1,0.5,1.1,1.1v3.9c0,0.5,0.4,0.9,0.9,0.9s0.9-0.4,0.9-0.9V9c0-1.6-1.3-2.9-2.9-2.9H9C7.4,6.1,6.1,7.4,6.1,9v30   c0,1.6,1.3,2.9,2.9,2.9h15.2c1.6,0,2.9-1.3,2.9-2.9v-3.8C27,34.7,26.6,34.3,26.1,34.3z"/></g></svg>